<svg id="Capa_1" enable-background="new 0 0 512 512" height="512" viewBox="0 0 512 512" width="512" xmlns="http://www.w3.org/2000/svg"><g><g><path d="m302 50v372c0 22.09-17.91 40-40 40h-212c-22.09 0-40-17.91-40-40v-372c0-22.09 17.91-40 40-40h212c22.09 0 40 17.91 40 40z" fill="#ff7b79"/><path d="m462 10c-21.4 0-40 16.87-40 40 0 15.06 8.33 28.18 20.63 35h38.74c12.3-6.82 20.63-19.94 20.63-35 0-22.09-17.91-40-40-40z" fill="#eefaff"/><path d="m382 170c-21.4 0-40 16.87-40 40 0 15.06 8.33 28.18 20.63 35h38.74c12.3-6.82 20.63-19.94 20.63-35 0-22.09-17.91-40-40-40z" fill="#eefaff"/><path d="m482 90v60c0 11.05-8.95 20-20 20s-20-8.95-20-20v-60c0-11.038 8.942-20 20-20 11.071 0 20 8.974 20 20z" fill="#ff7b79"/><path d="m402 250v60c0 11.05-8.95 20-20 20s-20-8.95-20-20v-60c0-11.038 8.942-20 20-20 11.071 0 20 8.974 20 20z" fill="#ff7b79"/><path d="m50 50h212v166h-212z" fill="#b3f1ff"/><path d="m156 256c44.18 0 80 35.82 80 80s-35.82 80-80 80-80-35.82-80-80 35.82-80 80-80z" fill="#eefaff"/><circle cx="156" cy="336" fill="#ff7b79" r="20"/></g><g><path d="m66 336c0 49.626 40.374 90 90 90s90-40.374 90-90-40.374-90-90-90-90 40.374-90 90zm160 0c0 38.598-31.402 70-70 70s-70-31.402-70-70 31.402-70 70-70 70 31.402 70 70z"/><path d="m126 336c0 16.542 13.458 30 30 30s30-13.458 30-30-13.458-30-30-30-30 13.458-30 30zm40 0c0 5.514-4.486 10-10 10s-10-4.486-10-10 4.486-10 10-10 10 4.486 10 10z"/><path d="m272 216v-166c0-5.522-4.478-10-10-10h-212c-5.523 0-10 4.478-10 10v166c0 5.523 4.477 10 10 10h212c5.522 0 10-4.477 10-10zm-20-10h-192v-146h192z"/><path d="m462 0c-27.138 0-50 21.525-50 50 0 15.849 7.522 30.628 20 39.996v.004 60c0 13.036 8.361 24.152 20 28.28v283.72c0 16.542-13.458 30-30 30h-40.027c6.292-8.362 10.027-18.753 10.027-30v-123.72c11.639-4.128 20-15.243 20-28.28 0 0 0-60.003 0-60.004 12.479-9.368 20-24.148 20-39.996 0-27.57-22.43-50-50-50-27.138 0-50 21.525-50 50 0 15.849 7.522 30.628 20 39.996v.004 60c0 13.036 8.361 24.152 20 28.28v123.72c0 16.542-13.458 30-30 30h-40c-13.518 0-24.972-8.989-28.71-21.301 22.149-5.134 38.71-25.012 38.71-48.699v-372c0-27.57-22.43-50-50-50h-60.998c-5.523 0-10 4.477-10 10s4.477 10 10 10h60.998c16.542 0 30 13.458 30 30v372c0 16.542-13.458 30-30 30h-212c-16.542 0-30-13.458-30-30v-372c0-16.542 13.458-30 30-30h61c5.523 0 10-4.477 10-10s-4.477-10-10-10h-61c-27.57 0-50 22.43-50 50v372c0 27.57 22.43 50 50 50h203.006c4.645 22.795 24.847 40 48.994 40h120c27.57 0 50-22.43 50-50v-283.72c11.639-4.128 20-15.243 20-28.28 0 0 0-60.003 0-60.004 12.479-9.368 20-24.148 20-39.996 0-27.57-22.43-50-50-50zm-70 310c0 5.514-4.486 10-10 10s-10-4.486-10-10v-60c0-5.606 4.534-10 10-10 5.523 0 10 4.445 10 10zm-10-130c16.542 0 30 13.458 30 30 0 7.488-2.8 14.579-7.648 20.002-5.553-6.201-13.588-10.002-22.352-10.002s-16.798 3.801-22.352 10.003c-4.848-5.423-7.648-12.514-7.648-20.003 0-16.822 13.178-30 30-30zm90-30c0 5.514-4.486 10-10 10s-10-4.486-10-10v-60c0-5.606 4.534-10 10-10 5.523 0 10 4.445 10 10zm12.352-79.998c-5.553-6.201-13.588-10.002-22.352-10.002s-16.798 3.801-22.352 10.003c-4.848-5.423-7.648-12.514-7.648-20.003 0-16.822 13.178-30 30-30 16.542 0 30 13.458 30 30 0 7.488-2.8 14.579-7.648 20.002z"/><path d="m96 166h20c3.788 0 7.25-2.14 8.944-5.528l9.203-18.406 12.366 37.097c1.361 4.084 5.183 6.838 9.487 6.838s8.125-2.754 9.487-6.838l12.366-37.097 9.203 18.406c1.693 3.388 5.156 5.528 8.944 5.528h20c5.523 0 10-4.477 10-10s-4.477-10-10-10h-13.82l-17.236-34.472c-1.809-3.618-5.621-5.802-9.653-5.503-4.034.286-7.499 2.976-8.778 6.813l-10.513 31.539-10.513-31.539c-1.279-3.837-4.744-6.526-8.778-6.813-4.039-.3-7.844 1.885-9.653 5.503l-17.236 34.472h-13.82c-5.523 0-10 4.477-10 10s4.477 10 10 10z"/><circle cx="156.001" cy="10" r="10"/></g></g></svg>