<svg id="Capa_1" enable-background="new 0 0 512 512" height="512" viewBox="0 0 512 512" width="512" xmlns="http://www.w3.org/2000/svg"><g><g><path d="m431.149 211.183h-15.56c.369-4.437.568-8.922.568-13.455 0-88.452-71.705-160.157-160.157-160.157-74.154 0-136.527 50.401-154.758 118.812-52.383 3.662-93.742 47.31-93.742 100.624 0 55.713 45.165 100.878 100.878 100.878h147.622 175.149c40.511 0 73.351-32.84 73.351-73.351 0-40.511-32.84-73.351-73.351-73.351z" fill="#9dc6fb"/><path d="m124.55 257.007c0 27.86 11.29 53.08 29.55 71.33 18.26 18.26 43.48 29.55 71.33 29.55h-117.05c-27.86 0-53.08-11.29-71.34-29.55-18.25-18.25-29.54-43.47-29.54-71.33 0-53.31 41.36-96.96 93.74-100.62 18.23-68.41 80.61-118.82 154.76-118.82 20.66 0 40.4 3.91 58.53 11.04-46.95 18.44-83.08 58.43-96.23 107.78-52.39 3.66-93.75 47.31-93.75 100.62z" fill="#80b4fb"/><path d="m331.428 314.32h-17.518v-115.88c0-18.805-15.245-34.05-34.05-34.05h-47.719c-18.805 0-34.05 15.245-34.05 34.05v115.88h-17.518c-30.385 0-46.844 35.575-27.174 58.734l75.428 88.806c14.238 16.764 40.11 16.764 54.348 0l75.428-88.806c19.669-23.159 3.21-58.734-27.175-58.734z" fill="#f9f6f9"/><path d="m277.278 467.403c-14.68 10.95-36.01 9.11-48.45-5.54l-75.43-88.81c-19.67-23.16-3.21-58.73 27.17-58.73h17.52v-115.887c0-18.8 15.24-34.05 34.05-34.05h42.57c-18.81 0-34.05 15.25-34.05 34.05v115.887h-17.52c-30.39 0-46.85 35.57-27.18 58.73l75.43 88.81c1.79 2.11 3.77 3.96 5.89 5.54z" fill="#dddaec"/></g><path d="m488.321 227.365c-15.278-15.267-35.581-23.675-57.171-23.675h-7.6c.073-2.005.109-3.995.109-5.96 0-92.448-75.212-167.66-167.66-167.66-46.165 0-90.754 19.333-122.333 53.042-2.832 3.023-2.677 7.769.346 10.601 3.022 2.832 7.769 2.677 10.601-.346 29.178-31.145 68.736-48.297 111.387-48.297 84.177 0 152.66 68.483 152.66 152.66 0 4.185-.184 8.504-.544 12.837-.175 2.09.534 4.158 1.954 5.701 1.421 1.544 3.422 2.422 5.52 2.422h15.561c17.585 0 34.123 6.849 46.563 19.281 12.436 12.446 19.286 28.984 19.286 46.569 0 36.31-29.54 65.85-65.85 65.85h-56.519c.044-6.245-1.273-12.557-4.041-18.54-7.144-15.439-22.148-25.03-39.16-25.03h-10.02v-108.38c0-22.911-18.639-41.55-41.55-41.55h-47.72c-22.911 0-41.55 18.639-41.55 41.55v108.38h-10.02c-17.011 0-32.017 9.591-39.16 25.03-2.768 5.982-4.085 12.295-4.041 18.54h-28.989c-24.946 0-48.398-9.714-66.037-27.353-17.632-17.633-27.343-41.082-27.343-66.027 0-48.827 38.111-89.739 86.763-93.138 3.196-.223 5.897-2.452 6.724-5.548 3.996-14.976 10.251-29.229 18.594-42.362 2.221-3.496 1.187-8.131-2.309-10.352-3.496-2.22-8.131-1.187-10.352 2.309-8.222 12.942-14.599 26.876-18.993 41.489-25.287 3.011-48.619 14.801-66.173 33.547-18.865 20.144-29.254 46.444-29.254 74.055 0 28.952 11.271 56.168 31.737 76.633 20.472 20.472 47.691 31.747 76.643 31.747h31.854c1.726 4.459 4.203 8.693 7.449 12.515l75.429 88.809c8.21 9.67 20.197 15.216 32.888 15.216 12.69 0 24.677-5.546 32.887-15.216l18.83-22.18c2.681-3.158 2.294-7.891-.864-10.572s-7.891-2.294-10.571.864l-18.83 22.18c-5.354 6.307-13.173 9.924-21.452 9.924s-16.098-3.617-21.454-9.925l-75.43-88.81c-7.294-8.589-8.824-19.821-4.093-30.046s14.281-16.329 25.547-16.329h17.52c4.142 0 7.5-3.358 7.5-7.5v-115.88c0-14.64 11.91-26.55 26.55-26.55h47.72c14.64 0 26.55 11.91 26.55 26.55v115.88c0 4.142 3.357 7.5 7.5 7.5h17.52c11.266 0 20.815 6.104 25.547 16.329 4.731 10.225 3.201 21.458-4.093 30.046l-37.18 43.77c-2.682 3.157-2.297 7.89.86 10.572 3.156 2.682 7.89 2.296 10.571-.861l37.181-43.771c3.246-3.822 5.723-8.057 7.449-12.515h59.385c44.581 0 80.85-36.269 80.85-80.85 0-21.589-8.408-41.893-23.679-57.175z"/></g></svg>