<svg id="Capa_1" enable-background="new 0 0 512 512" height="512" viewBox="0 0 512 512" width="512" xmlns="http://www.w3.org/2000/svg"><g><g><path d="m461.665 7.5h-414.165c-22.091 0-40 17.909-40 40v417c0 22.091 17.909 40 40 40h353.466l6.016-8.851 70.167-70.167 24.516-21.681v-2.835-353.466c0-22.091-17.908-40-40-40z" fill="#e7ecf6"/><path d="m464.5 440.966v-373.466c0-11.046-8.954-20-20-20h-377c-11.046 0-20 8.954-20 20v377c0 11.046 8.954 20 20 20h373.466z" fill="#bed8fb"/><path d="m464.5 318.8-80.24-114.8c-10.747-15.376-33.513-15.376-44.26 0l-103.481 148.052h227.981z" fill="#365e7d"/><circle cx="293.5" cy="116.593" fill="#ffc344" r="31.262"/><path d="m163.004 153.548-115.504 165.252v33.251h298.509l-138.745-198.503c-10.747-15.376-33.513-15.376-44.26 0z" fill="#407093"/><path d="m464.5 440.966v-106.966h-417v110.5c0 11.046 8.954 20 20 20h373.466z" fill="#b3e59f"/><path d="m400.966 504.5 103.534-103.534h-63.534c-22.091 0-40 17.909-40 40z" fill="#acacac"/><path d="m464.5 7.5h-28.346c22.091 0 40 17.909 40 40v353.466 28.346l28.346-28.346v-353.466c0-22.091-17.909-40-40-40z" fill="#d8e2f1"/><path d="m400.966 504.5 103.534-103.534h-63.534c-22.091 0-40 17.909-40 40z" fill="#80b4fb"/></g><g><path d="m464.5 0h-417c-26.191 0-47.5 21.309-47.5 47.5v417c0 26.191 21.309 47.5 47.5 47.5h21.963c4.142 0 7.5-3.358 7.5-7.5s-3.358-7.5-7.5-7.5h-21.963c-17.92 0-32.5-14.58-32.5-32.5v-417c0-17.92 14.58-32.5 32.5-32.5h417c17.92 0 32.5 14.58 32.5 32.5v27.466c0 4.142 3.358 7.5 7.5 7.5s7.5-3.358 7.5-7.5v-27.466c0-26.191-21.309-47.5-47.5-47.5z"/><path d="m504.5 102.466c-4.142 0-7.5 3.358-7.5 7.5v283.5h-25c0-9.428 0-308.193 0-325.966 0-15.164-12.336-27.5-27.5-27.5h-377c-15.164 0-27.5 12.336-27.5 27.5v377c0 15.164 12.336 27.5 27.5 27.5h325.966v25h-289.003c-4.142 0-7.5 3.358-7.5 7.5s3.358 7.5 7.5 7.5h296.502c1.975 0 3.894-.787 5.303-2.197l103.534-103.534c1.326-1.325 2.197-3.238 2.197-5.303v-291c.001-4.142-3.357-7.5-7.499-7.5zm-449.5 218.695 114.151-163.317c3.699-5.293 9.525-8.329 15.982-8.329s12.283 3.036 15.983 8.329c6.078 8.695 112.117 160.407 117.882 168.655h-263.998zm282.3 5.339-36.886-52.773 45.733-65.43c3.699-5.293 9.525-8.329 15.983-8.329s12.283 3.036 15.982 8.329l78.888 112.865v5.338zm-269.8-271.5h377c6.893 0 12.5 5.607 12.5 12.5v227.478l-66.592-95.274c-6.449-9.227-17.02-14.736-28.277-14.736-11.258 0-21.829 5.509-28.278 14.735l-42.588 60.932-77.852-111.385c-6.45-9.227-17.021-14.736-28.278-14.735-11.257 0-21.828 5.509-28.277 14.735l-101.858 145.727v-227.477c0-6.893 5.607-12.5 12.5-12.5zm0 402c-6.893 0-12.5-5.607-12.5-12.5v-103h402v51.966h-16.034c-26.191 0-47.5 21.309-47.5 47.5v16.034zm340.966 29.394c0-48.182 0 1.768 0-45.428 0-17.92 14.58-32.5 32.5-32.5h45.428z"/><path d="m293.5 155.354c21.373 0 38.762-17.389 38.762-38.762 0-21.374-17.389-38.762-38.762-38.762s-38.762 17.389-38.762 38.762c0 21.374 17.389 38.762 38.762 38.762zm0-62.523c13.102 0 23.762 10.66 23.762 23.762s-10.66 23.762-23.762 23.762-23.762-10.66-23.762-23.762c0-13.103 10.66-23.762 23.762-23.762z"/></g></g></svg>