<svg id="Capa_1" enable-background="new 0 0 512 512" height="512" viewBox="0 0 512 512" width="512" xmlns="http://www.w3.org/2000/svg"><g><g><path d="m419.29 482.912-5.476-5.476c0-5.718 0-274.719 0-334.667l-81.144-81.144h-230.795l-4.979-7.025c-12.015.546-21.588 10.457-21.588 22.606v404.662c0 12.499 10.133 22.632 22.632 22.632h298.744c12.149 0 22.06-9.574 22.606-21.588z" fill="#0055a3"/><path d="m96.896 54.6c-.041.898-.026 402.643-.026 405.706 0 12.499 10.133 22.632 22.632 22.632h298.744c.35 0 .698-.01 1.044-.026.016-.346.026-.694.026-1.043v-333.598l-93.697-93.697c-1.657 0-227.815-.015-228.723.026z" fill="#004281"/><path d="m450.014 92.969c-21.161-10.632-25.332-12.728-45.681-22.953l-31.64-62.516h-227.679c-12.499 0-22.632 10.133-22.632 22.632v404.662c0 12.499 10.133 22.632 22.632 22.632h267.563c9.604 0 17.805-5.985 21.092-14.426h16.346v-350.031z" fill="#eaf6ff"/><path d="m307.478 343.982h-248.289c-7.5 0-13.579-6.08-13.579-13.579v-108.538c0-7.5 6.08-13.579 13.579-13.579h248.289c7.5 0 13.579 6.08 13.579 13.579v108.538c0 7.499-6.08 13.579-13.579 13.579z" fill="#60b7ff"/><path d="m435.208 101.197v333.597c0 12.5-10.133 22.632-22.632 22.632h31.181c12.499 0 22.632-10.133 22.632-22.632v-333.597l-31.181-15.667z" fill="#d8ecfe"/><path d="m395.325 101.197h71.065l-93.697-93.697v71.065c0 12.499 10.132 22.632 22.632 22.632z" fill="#b3dafe"/></g><g><path d="m358.939 164.174h57c4.143 0 7.5-3.358 7.5-7.5s-3.357-7.5-7.5-7.5h-57c-4.143 0-7.5 3.358-7.5 7.5s3.357 7.5 7.5 7.5z"/><path d="m330.939 149.174h-57c-4.143 0-7.5 3.358-7.5 7.5s3.357 7.5 7.5 7.5h57c4.143 0 7.5-3.358 7.5-7.5s-3.357-7.5-7.5-7.5z"/><path d="m188.939 149.174c-4.143 0-7.5 3.358-7.5 7.5s3.357 7.5 7.5 7.5h57c4.143 0 7.5-3.358 7.5-7.5s-3.357-7.5-7.5-7.5z"/><path d="m419.542 205.629h-59.384c-4.143 0-7.5 3.358-7.5 7.5s3.357 7.5 7.5 7.5h59.384c4.143 0 7.5-3.358 7.5-7.5s-3.358-7.5-7.5-7.5z"/><path d="m419.542 262.085h-59.384c-4.143 0-7.5 3.358-7.5 7.5s3.357 7.5 7.5 7.5h59.384c4.143 0 7.5-3.358 7.5-7.5s-3.358-7.5-7.5-7.5z"/><path d="m427.042 326.041c0-4.142-3.357-7.5-7.5-7.5h-59.384c-4.143 0-7.5 3.358-7.5 7.5s3.357 7.5 7.5 7.5h59.384c4.142 0 7.5-3.358 7.5-7.5z"/><path d="m188.939 374.996c-4.143 0-7.5 3.358-7.5 7.5s3.357 7.5 7.5 7.5h57c4.143 0 7.5-3.358 7.5-7.5s-3.357-7.5-7.5-7.5z"/><path d="m358.939 374.996c-4.143 0-7.5 3.358-7.5 7.5s3.357 7.5 7.5 7.5h57c4.143 0 7.5-3.358 7.5-7.5s-3.357-7.5-7.5-7.5z"/><path d="m330.939 374.996h-57c-4.143 0-7.5 3.358-7.5 7.5s3.357 7.5 7.5 7.5h57c4.143 0 7.5-3.358 7.5-7.5s-3.357-7.5-7.5-7.5z"/><path d="m154.9 313.072c3.344 2.437 8.037 1.704 10.478-1.647l17.968-24.672 17.94 24.667c2.441 3.356 7.135 4.086 10.477 1.654 3.35-2.436 4.091-7.127 1.654-10.477l-20.791-28.587 17.633-24.211c2.438-3.349 1.701-8.04-1.647-10.478-3.348-2.439-8.04-1.701-10.478 1.647l-14.78 20.294-14.756-20.289c-2.437-3.351-7.129-4.091-10.477-1.654-3.35 2.436-4.091 7.127-1.654 10.477l17.607 24.209-20.822 28.589c-2.438 3.348-1.701 8.039 1.648 10.478z"/><path d="m81.818 245.32c0 4.142 3.357 7.5 7.5 7.5h9.466v54.189c0 4.142 3.357 7.5 7.5 7.5s7.5-3.358 7.5-7.5v-54.189h9.603c4.143 0 7.5-3.358 7.5-7.5s-3.357-7.5-7.5-7.5h-34.069c-4.143 0-7.5 3.358-7.5 7.5z"/><path d="m243.28 252.82h9.465v54.189c0 4.142 3.357 7.5 7.5 7.5s7.5-3.358 7.5-7.5v-54.189h9.604c4.143 0 7.5-3.358 7.5-7.5s-3.357-7.5-7.5-7.5h-34.069c-4.143 0-7.5 3.358-7.5 7.5s3.357 7.5 7.5 7.5z"/><path d="m466.39 195.786c4.143 0 7.5-3.358 7.5-7.5v-87.089c0-1.888-.738-3.845-2.196-5.303l-93.697-93.697c-1.337-1.336-3.251-2.197-5.304-2.197h-227.68c-16.614 0-30.132 13.517-30.132 30.132v16.942h-16.941c-16.615 0-30.132 13.517-30.132 30.132v123.58h-8.619c-11.623 0-21.079 9.456-21.079 21.079v108.538c0 11.624 9.456 21.08 21.079 21.08h8.619v130.386c0 16.614 13.518 30.131 30.132 30.131h51.1c4.143 0 7.5-3.358 7.5-7.5s-3.357-7.5-7.5-7.5h-51.1c-8.344 0-15.132-6.788-15.132-15.132v-130.386h32.073v83.312c0 16.615 13.518 30.132 30.132 30.132h266.803v16.942c0 8.344-6.788 15.132-15.132 15.132h-212.644c-4.143 0-7.5 3.358-7.5 7.5s3.357 7.5 7.5 7.5h212.645c16.614 0 30.132-13.517 30.132-30.132v-16.942h16.941c16.615 0 30.133-13.517 30.133-30.132v-211.509c0-4.142-3.357-7.5-7.5-7.5s-7.5 3.358-7.5 7.5v211.509c0 8.344-6.788 15.132-15.133 15.132-10.617 0-283.693 0-298.744 0-8.344 0-15.132-6.788-15.132-15.132v-83.312h177.596.001c7.991 0 14.958-4.469 18.531-11.04 1.624-2.987 2.548-6.407 2.548-10.04v-108.537s0 0 0-.001c-.002-11.607-9.457-21.078-21.08-21.078-7.055 0-167.956 0-177.596 0 0-8.897 0-163.182 0-170.654 0-8.344 6.788-15.132 15.132-15.132h220.18v63.565c0 16.615 13.518 30.132 30.132 30.132h63.565v79.589c-.001 4.142 3.357 7.5 7.499 7.5zm-158.913 20c3.309 0 6.08 2.701 6.08 6.08v108.537c0 3.352-2.728 6.08-6.08 6.08-10.63 0-237.658 0-248.288 0-3.352 0-6.079-2.728-6.079-6.08v-108.538c0-3.352 2.728-6.079 6.079-6.079zm-224.669-15v-123.58c0-8.344 6.788-15.132 15.132-15.132h16.941v138.712zm312.517-107.089c-8.344 0-15.132-6.788-15.132-15.132v-52.959l68.09 68.09h-52.958z"/></g></g></svg>