<?xml version="1.0" encoding="iso-8859-1"?>
<!-- Generator: Adobe Illustrator 19.0.0, SVG Export Plug-In . SVG Version: 6.00 Build 0)  -->
<svg version="1.1" id="Capa_1" xmlns="http://www.w3.org/2000/svg" xmlns:xlink="http://www.w3.org/1999/xlink" x="0px" y="0px"
	 viewBox="0 0 512.293 512.293" style="enable-background:new 0 0 512.293 512.293;" xml:space="preserve">
<path style="fill:#BBDEFB;" d="M402.148,149.606C384.338,63.054,299.735,7.328,213.183,25.138
	C139.07,40.389,85.774,105.472,85.434,181.136c0,3.605,0.149,7.296,0.469,11.2C33.178,197.917-5.04,245.183,0.541,297.908
	c5.173,48.87,46.416,85.943,95.559,85.895h11.2c-0.256-3.541-0.533-7.061-0.533-10.667c0-76.583,62.083-138.667,138.667-138.667
	S384.1,296.553,384.1,373.136c0,3.605-0.277,7.125-0.533,10.667h11.2c64.73,0.177,117.348-52.154,117.525-116.885
	C512.462,204.807,464.148,153.348,402.148,149.606L402.148,149.606z"/>
<circle style="fill:#4CAF50;" cx="245.434" cy="373.136" r="117.333"/>
<g>
	<path style="fill:#FAFAFA;" d="M245.434,447.803c-5.891,0-10.667-4.776-10.667-10.667v-128c0-5.891,4.776-10.667,10.667-10.667
		s10.667,4.776,10.667,10.667v128C256.1,443.027,251.325,447.803,245.434,447.803z"/>
	<path style="fill:#FAFAFA;" d="M288.1,362.47c-2.831,0.005-5.548-1.115-7.552-3.115l-35.115-35.136l-35.115,35.136
		c-4.237,4.093-10.99,3.975-15.083-0.262c-3.993-4.134-3.993-10.687,0-14.821l42.667-42.667c4.165-4.164,10.917-4.164,15.083,0
		l42.667,42.667c4.159,4.172,4.149,10.926-0.024,15.085C293.63,361.35,290.923,362.469,288.1,362.47z"/>
</g>
<g>
</g>
<g>
</g>
<g>
</g>
<g>
</g>
<g>
</g>
<g>
</g>
<g>
</g>
<g>
</g>
<g>
</g>
<g>
</g>
<g>
</g>
<g>
</g>
<g>
</g>
<g>
</g>
<g>
</g>
</svg>
