<?xml version="1.0" standalone="no"?>
<!DOCTYPE svg PUBLIC "-//W3C//DTD SVG 20010904//EN"
 "http://www.w3.org/TR/2001/REC-SVG-20010904/DTD/svg10.dtd">
<svg version="1.0" xmlns="http://www.w3.org/2000/svg"
 width="512.000000pt" height="512.000000pt" viewBox="0 0 512.000000 512.000000"
 preserveAspectRatio="xMidYMid meet">
<metadata>
Created by potrace 1.16, written by Peter Selinger 2001-2019
</metadata>
<g transform="translate(0.000000,512.000000) scale(0.100000,-0.100000)"
fill="#000000" stroke="none">
<path d="M3365 5101 c-234 -70 -407 -196 -544 -399 -42 -62 -42 -62 -69 -48
-91 47 -260 59 -374 27 -177 -51 -320 -202 -362 -382 -8 -34 -16 -62 -18 -63
-59 -28 -114 -60 -160 -93 l-58 -43 -515 0 c-444 0 -521 -2 -553 -16 -48 -20
-86 -56 -106 -102 -8 -20 -147 -586 -308 -1257 l-293 -1220 -3 -678 c-2 -651
-2 -679 17 -715 22 -43 53 -73 98 -96 29 -15 242 -16 2443 -16 2201 0 2414 1
2443 16 45 23 76 53 98 96 19 36 19 64 16 715 l-3 678 -172 708 c-95 390 -172
712 -172 715 0 4 25 23 56 42 83 51 184 164 227 254 54 110 70 188 64 326 -6
184 -61 312 -184 436 -78 78 -156 126 -264 160 -46 15 -86 29 -88 31 -2 1 -7
44 -12 94 -30 328 -231 619 -524 764 -150 74 -209 85 -430 84 -151 0 -202 -4
-250 -18z m460 -211 c249 -78 428 -259 507 -510 21 -68 23 -91 21 -249 l-2
-174 67 6 c234 22 444 -140 484 -373 33 -191 -74 -385 -259 -473 l-68 -32
-1180 -3 c-797 -2 -1196 1 -1231 8 -89 19 -171 65 -244 138 -139 139 -183 324
-120 507 27 79 71 145 137 205 61 56 112 84 215 121 l67 23 -1 71 c-1 98 22
163 83 229 64 70 130 100 224 100 89 0 153 -28 252 -113 39 -33 76 -61 81 -61
5 0 36 57 69 128 70 147 129 230 220 307 77 66 220 137 318 159 98 22 267 15
360 -14z m-2209 -1029 c-57 -109 -73 -320 -36 -465 31 -124 92 -228 185 -321
123 -123 245 -184 412 -206 51 -6 481 -9 1231 -7 l1153 3 9 -35 c42 -160 281
-1182 278 -1185 -3 -3 -1035 -4 -2295 -3 l-2290 3 268 1120 c148 616 269 1121
269 1123 0 1 187 2 415 2 l416 0 -15 -29z m3294 -3041 l0 -610 -2350 0 -2350
0 0 610 0 610 2350 0 2350 0 0 -610z"/>
<path d="M4038 1020 c-90 -27 -141 -92 -146 -189 -3 -55 1 -74 20 -111 76
-142 292 -145 365 -6 57 110 17 242 -90 292 -53 24 -100 29 -149 14z"/>
</g>
</svg>
