<svg height="427pt" viewBox="-40 0 427 427.00131" width="427pt" xmlns="http://www.w3.org/2000/svg"><path d="m308.601562 62.300781c15.464844 0 28 12.535157 28 28 0 15.464844-12.535156 28-28 28h-270.402343c-15.460938 0-28-12.535156-28-28 0-15.464843 12.539062-28 28-28zm0 0" fill="#00acea"/><path d="m308 118.703125v254.796875c0 25.089844-17.910156 43-40 43h-189.199219c-22.089843 0-40-17.910156-40-43v-255.199219h269.199219zm0 0" fill="#00efd1"/><g fill="#083863"><path d="m232.402344 154.703125c-5.523438 0-10 4.476563-10 10v189c0 5.519531 4.476562 10 10 10 5.519531 0 10-4.480469 10-10v-189c0-5.523437-4.480469-10-10-10zm0 0"/><path d="m114.402344 154.703125c-5.523438 0-10 4.476563-10 10v189c0 5.519531 4.476562 10 10 10 5.519531 0 10-4.480469 10-10v-189c0-5.523437-4.480469-10-10-10zm0 0"/><path d="m28.402344 127.121094v246.378906c0 14.5625 5.335937 28.234375 14.667968 38.050781 9.28125 9.839844 22.203126 15.425781 35.730469 15.449219h189.199219c13.527344-.023438 26.449219-5.609375 35.730469-15.449219 9.332031-9.816406 14.671875-23.488281 14.671875-38.050781v-246.367188c6.503906-1.816406 12.445312-5.246093 17.277344-9.96875 10.8125-10.964843 14-27.347656 8.089843-41.570312-5.910156-14.222656-19.765625-23.519531-35.167969-23.59375h-51.199218v-12.5c.058594-10.511719-4.097656-20.605469-11.542969-28.03125-7.441406-7.421875-17.546875-11.5546875-28.058594-11.46875h-88.800781c-10.511719-.0859375-20.617188 4.046875-28.058594 11.46875-7.445312 7.425781-11.601562 17.519531-11.539062 28.03125v12.5h-51.203125c-21.015625.21875-37.996094 17.210938-38.199219 38.226562.101562 17.285157 11.71875 32.378907 28.402344 36.894532zm239.597656 279.878906h-189.199219c-17.101562 0-30.398437-14.6875-30.398437-33.5v-245.5h250v245.5c0 18.8125-13.300782 33.5-30.402344 33.5zm-158.597656-367.5c-.066406-5.207031 1.980468-10.21875 5.671875-13.894531 3.695312-3.675781 8.71875-5.695313 13.925781-5.605469h88.800781c5.207031-.089844 10.230469 1.929688 13.925781 5.605469 3.691407 3.671875 5.738282 8.6875 5.675782 13.894531v12.5h-128zm-83.9375 37.929688c3.355468-3.429688 7.9375-5.382813 12.734375-5.429688h270.402343c9.964844.082031 18 8.1875 18 18.152344-.003906 4.757812-1.90625 9.316406-5.285156 12.667968-3.382812 3.351563-7.957031 5.214844-12.714844 5.179688h-270.402343c-9.921875.023438-17.980469-8.003906-18-17.921875-.007813-4.753906 1.886719-9.308594 5.265625-12.648437zm0 0"/><path d="m173.402344 154.703125c-5.523438 0-10 4.476563-10 10v189c0 5.519531 4.476562 10 10 10 5.519531 0 10-4.480469 10-10v-189c0-5.523437-4.480469-10-10-10zm0 0"/></g></svg>