<svg height="512" viewBox="0 0 512 512" width="512" xmlns="http://www.w3.org/2000/svg">
<g><g>
<path d="m48 80h392v88h-392z" fill="#006df0"/>
<path d="m394.04 144h-250.04l-16-32h-80-32v336h448v-285.39" fill="#78b9eb"/>
<path d="m304 360h128v56h-128z" fill="#d8d7da"/>
<circle cx="440" cy="112" fill="#91cc04" r="56"/>
</g><g>
<path d="m432 352h-128a8 8 0 0 0 -8 8v56a8 8 0 0 0 8 8h128a8 8 0 0 0 8-8v-56a8 8 0 0 0 -8-8zm-8 56h-112v-40h112z"/>
<path d="m440 48a63.9 63.9 0 0 0 -49.91 24h-342.09a8 8 0 0 0 -8 8v24h-24a8 8 0 0 0 -8 8v336a8 8 0 0 0 8 8h448a8 8 0 0 0 8-8v-280.61a63.977 63.977 0 0 0 -32-119.39zm-384 40h324.69a63.752 63.752 0 0 0 0 48h-231.75l-13.78-27.58a8.011 8.011 0 0 0 -7.16-4.42h-72zm400 352h-432v-320h99.06l13.78 27.58a8.011 8.011 0 0 0 7.16 4.42h246.09a63.932 63.932 0 0 0 65.91 21.97zm-16-280a48 48 0 1 1 48-48 48.051 48.051 0 0 1 -48 48z"/>
<path d="m464 104h-16v-16a8 8 0 0 0 -16 0v16h-16a8 8 0 0 0 0 16h16v16a8 8 0 0 0 16 0v-16h16a8 8 0 0 0 0-16z"/>
</g></g>
</svg>